<?xml version="1.0" encoding="UTF-8"?>
<svg id="Capa_1" data-name="Capa 1" xmlns="http://www.w3.org/2000/svg" version="1.1" viewBox="0 0 595.28 841.89">
  <defs>
    <style>
      .cls-1 {
        fill: #fff;
        stroke-width: 0px;
      }
    </style>
  </defs>
  <path class="cls-1" d="M164.16,401.29c-7.9-11.12-26.65-11.57-39.1-13.69-6.36-.91-13.05-1.63-18.42-3.26-1.9-.58-3.82-1.37-5.35-2.61-4.44-3.37-4.49-10.23-.44-14,2.64-2.71,6.3-4.26,9.95-5.1,10.51-2.13,24.21-1.86,32.79,5.66,2.99,2.5,4.02,6.81,7.96,8.13,3.09.96,7.64.92,10.33.15,4.11-1.14,1.92-6.19.59-8.97-5.17-10.48-17.11-16.21-28.3-18.18-18.01-2.9-46.4-.44-52.26,20.39-2.07,7.76.45,17.62,6.78,22.45,9.42,7.22,22.08,7.89,33.5,9.55,6.48.85,12.72,1.5,18,2.84,3.92.93,8.02,2.66,9.68,6.6,1.91,4.05.33,8.98-3.09,11.82-7.28,5.95-17.12,6.17-26.42,5.74-8.57-.63-17.98-3.98-22.5-11.63-1.32-2.1-2.42-4.29-4.82-5.23-3.24-1.2-8.39-1.13-11.12-.17-4.36,1.77-.77,8.18.66,11.17,3.09,5.53,7.83,9.73,13.68,12.86,12.52,6.72,28.32,7.41,41.95,5.1,10.91-2.02,22.62-7.49,27.19-18.2,2.75-6.35,2.59-15.4-1.15-21.28l-.08-.13Z"/>
  <path class="cls-1" d="M230.5,350.34c-4.24-.53-9.5-.16-13.98-.24-1.51,0-4.32.05-5.08.78-6.12,10.97-36.75,75.29-43.07,88.13-.42,1.07,1.14,1.29,2.62,1.33,3.23-.03,8.51.5,12.09-.59,3.69-1.49,4.66-6.09,6.5-9.4,2.18-4.6,4.44-9.41,6.29-13.3,7.36-15.34,18.98-40.6,25.13-52.82,1.1-1.56,1.8,1.3,3.38,4.32,1.01,2.15,2.31,4.88,3.73,7.9,9.68,20.47,16.9,35.72,26.23,55.45,2.34,5.01,3.58,8.64,9.8,8.47,2.98.08,6.6.06,8.55-.06.73-.03,2.08-.21,2.17-.73-3.62-9.18-26.68-54.97-35.31-73.27-3.39-6.96-5.93-12.25-7.06-14.49-.42-.8-.94-1.28-1.9-1.45l-.08-.02ZM189.95,407.88c-.54,2.54-.32,6-.25,8.71.2,1.89.24,2.82,1.82,3.04,9.87.14,45.96,0,57.4.05,1.91-.02,2.93.1,3.37-1.15.63-2.92.52-7.17.15-10.28-.37-1.87-1.44-1.66-3.76-1.68-10.61,0-33,0-45.46,0-5.37.02-9.61-.04-11.62.03-.8.04-1.4.36-1.63,1.2l-.02.08Z"/>
  <path class="cls-1" d="M286.77,407.11c-1.25.41-.89,3.87-.94,6.29.01,7.45-.03,19.19.02,23.91-.16,2.99,2,3.04,4.64,3.08,2.46,0,6.25.09,8.58-.1,2.73-.13,2.64-1.93,2.65-3.95,0-6.13.01-20.41,0-26.14-.02-.84-.03-1.76-.36-2.42-.97-1.39-2.47-1.05-4.47-1.2-2.81.1-7.74-.39-10.04.49l-.07.04ZM286.81,350.57c-1.15.57-.95,2.04-.98,4.76,0,9.41-.01,25.19,0,31.46.04,1.12.02,2.35,1.2,2.8,2.28.67,5.36.34,8.13.42,3.05-.18,6.85.73,6.54-3.09-.1-7.41.27-28-.15-35.17-.49-1.58-1.67-1.44-3.54-1.61-2.79.04-8.67-.4-11.14.41l-.07.04Z"/>
  <path class="cls-1" d="M400.35,350.44c-1.11.33-1.17,1.1-1.2,2.1-.3,10.72.51,57.26-.28,68.81-.24.1-.71-.33-1.52-1.3-1.5-1.8-3.3-4.17-4.85-6.14-14.74-18.86-34.62-44.44-48.26-61.78-1.55-1.93-3.2-1.95-5.86-2.02-2.78-.04-7.3-.02-10.56-.02-1.97,0-3.45.03-4.35.18-.65.11-1.03.29-1.23.58-.81,7.23,0,23.3-.28,42.85,0,9.26,0,18.6,0,26.43,0,8.56-.01,15.31,0,18.18-.09,1.52.96,1.89,2.34,1.96,2.83.2,7.36.15,10.1.03,1.04-.1,2.46-.12,2.82-1.25.38-7.43.03-14.02.15-25.16.05-18.39-.09-38.52.05-45.29.15-1.34,1.21.33,2.5,1.87,7.29,9.33,15.99,20.56,23.46,30.14,9.33,11.99,18.54,23.83,27.89,35.85,2.71,4.02,4.66,3.92,8.99,3.92,3.92-.06,9.43.21,12.99-.23.99-.21,1.22-.63,1.28-1.51,0-10.15.04-63.59.02-81.9,0-1.15,0-2.2,0-3.3-.03-2.1.26-2.96-2.02-3.21-3.74-.21-8.53-.39-12.11.17l-.08.02Z"/>
  <path class="cls-1" d="M464.87,357.99c-1.45.58-.81,5.37-.94,7.66.03,7.13-.05,16.24.03,21.44-.11,2.91,2.29,2.87,4.8,2.91,2.41,0,5.98.08,8.27-.1,2.78-.11,2.78-1.84,2.78-3.91,0-5.84.01-19.26,0-24.83-.02-.9-.02-1.85-.4-2.55-1.03-1.37-2.57-1.02-4.61-1.17-2.78.11-7.61-.39-9.86.51l-.07.04ZM464.87,407.11c-1.25.41-.89,3.87-.94,6.29.01,7.45-.03,19.19.02,23.91-.16,2.99,2,3.04,4.64,3.08,2.46,0,6.25.09,8.58-.1,2.72-.13,2.64-1.93,2.65-3.95,0-6.13.01-20.41,0-26.14-.02-.84-.03-1.76-.36-2.42-.97-1.39-2.46-1.05-4.47-1.2-2.8.1-7.74-.39-10.04.49l-.07.04ZM426.85,351.43c-.44,2.87-.25,7.24-.15,10.04.05.86.28,2.2.89,2.39,11.59.53,65.86.02,85.93.19,1.77-.05,2.76.22,3.2-.84.71-2.65.41-8.1.31-10.67-.13-1.16-.25-2.38-1.47-2.42-11.29-.1-52.78,0-70.29-.04-8.03,0-14.26-.02-16.83.01-.84,0-1.4.31-1.57,1.25l-.02.08Z"/>
  <path class="cls-1" d="M285.64,390.88c.73.78.74,1.99.81,3.06.05,2.21.03,5.56.02,7.97-.07,1.28.02,2.81-.89,3.76-1.91,1.37-4.62.71-7.04.88-2.3-.13-5.61.43-7.11-.95-.69-.78-.74-1.94-.8-2.99-.06-2.38-.05-6.07,0-8.5.06-1.11.08-2.34.81-3.16,1.83-1.45,4.51-.77,6.9-.95,2.31.12,5.68-.41,7.25.81l.07.07Z"/>
  <path class="cls-1" d="M463.73,390.88c.73.78.74,1.99.81,3.06.05,2.21.03,5.56.02,7.97-.07,1.28.02,2.81-.89,3.76-1.91,1.37-4.62.71-7.04.88-2.3-.13-5.61.43-7.1-.95-.69-.78-.73-1.94-.8-2.99-.06-2.38-.05-6.07,0-8.5.06-1.11.08-2.34.81-3.16,1.83-1.45,4.51-.77,6.9-.95,2.31.12,5.68-.41,7.25.81l.07.07Z"/>
  <g>
    <path class="cls-1" d="M98.2,466.98l12.96,27h-5.08l-11.77-25.2h1.84l-11.77,25.2h-5.08l12.96-27h5.94ZM85.68,487.79v-3.92h18.86v3.92h-18.86Z"/>
    <path class="cls-1" d="M162.97,491.1l-1.94.22v-24.34h4.61v27h-6.05l-18.94-24.34,1.91-.22v24.55h-4.61v-27h6.19l18.83,24.12Z"/>
    <path class="cls-1" d="M211.32,466.98l12.96,27h-5.08l-11.77-25.2h1.84l-11.77,25.2h-5.08l12.96-27h5.94ZM198.79,487.79v-3.92h18.86v3.92h-18.86Z"/>
    <path class="cls-1" d="M255.81,466.98v24.88l-2.12-2.05h20.34v4.18h-22.97v-27h4.75Z"/>
    <path class="cls-1" d="M292.89,466.98h5.36l11.02,13.82h-2.56l11.02-13.82h5.36l-13.57,17.03-3.02.04-13.61-17.06ZM305.64,493.98v-12.89h4.75v12.89h-4.75Z"/>
    <path class="cls-1" d="M347.75,466.98h27.07v4.18h-27.07v-4.18ZM358.91,469.18h4.75v24.8h-4.75v-24.8Z"/>
    <path class="cls-1" d="M401.93,466.98h4.75v27h-4.75v-27Z"/>
    <path class="cls-1" d="M464.72,483.29c-.24,2.21-1.01,4.16-2.32,5.85-1.31,1.69-3.02,3.01-5.13,3.94s-4.52,1.4-7.24,1.4c-3.02,0-5.68-.59-7.96-1.76-2.28-1.18-4.06-2.81-5.33-4.91s-1.91-4.54-1.91-7.33.64-5.23,1.91-7.33c1.27-2.1,3.05-3.74,5.33-4.91,2.28-1.18,4.93-1.76,7.96-1.76,2.71,0,5.12.47,7.24,1.4s3.82,2.24,5.13,3.92c1.31,1.68,2.08,3.64,2.32,5.87h-4.79c-.26-1.44-.83-2.68-1.71-3.71-.88-1.03-2.01-1.83-3.4-2.39-1.39-.56-3-.85-4.82-.85-2.11,0-3.94.4-5.49,1.19-1.55.79-2.74,1.92-3.58,3.38-.84,1.46-1.26,3.19-1.26,5.18s.42,3.72,1.26,5.18c.84,1.46,2.03,2.59,3.58,3.38,1.55.79,3.38,1.19,5.49,1.19,1.82,0,3.43-.28,4.82-.83,1.39-.55,2.53-1.35,3.4-2.39.88-1.04,1.45-2.29,1.71-3.73h4.79Z"/>
    <path class="cls-1" d="M490.93,485.2h4.82c.14,1.08.59,2.03,1.35,2.84s1.76,1.45,3.01,1.89c1.25.44,2.69.67,4.32.67,2.42,0,4.34-.38,5.76-1.13,1.42-.76,2.12-1.78,2.12-3.08,0-1.06-.41-1.85-1.22-2.38-.82-.53-2.29-.92-4.43-1.19l-5.83-.76c-3.26-.43-5.63-1.24-7.11-2.43-1.48-1.19-2.21-2.87-2.21-5.06,0-1.66.5-3.09,1.49-4.3,1-1.21,2.41-2.15,4.23-2.81,1.82-.66,3.96-.99,6.41-.99s4.57.36,6.44,1.08c1.87.72,3.37,1.72,4.48,3.01,1.12,1.28,1.72,2.79,1.82,4.52h-4.82c-.12-.96-.52-1.79-1.21-2.48-.68-.7-1.6-1.24-2.75-1.64-1.15-.4-2.51-.59-4.07-.59-2.21,0-3.97.36-5.29,1.08-1.32.72-1.98,1.7-1.98,2.95,0,.96.39,1.7,1.17,2.21.78.52,2.14.91,4.09,1.17l5.9.83c2.42.34,4.34.79,5.74,1.35,1.4.56,2.41,1.32,3.01,2.27.6.95.9,2.17.9,3.65,0,1.73-.53,3.24-1.58,4.54-1.06,1.3-2.54,2.3-4.45,3.01-1.91.71-4.13,1.06-6.68,1.06s-4.88-.39-6.86-1.17-3.55-1.87-4.7-3.26c-1.15-1.39-1.78-3.01-1.87-4.86Z"/>
  </g>
</svg>